/* XPM */
static char *alevt[] = {
/* columns rows colors chars-per-pixel */
"58 20 2 1 ",
"  c gray100",
". c black",
/* pixels */
"..........................................................",
"..........................................................",
"....        ..   ...............   ......   .           ..",
"....        ..   ...............   ......   .           ..",
". .   ....   .   . . . . . . . .   . . ..   .....   ......",
" ..   .. .   .   ........ . . ..   .. . .   .. ..   .. . .",
". .   . ..   .   ..      . . . .   . . ..   . . .   . . . ",
" ..   .. .   .   ..      .. . ..   .. . .   .. ..   .. . .",
". .   . ..   .   .   ..   .. . .   . . ..   . . .   . . . ",
" ..   .. .   .   .   ..   . . ..   .. . .   .. ..   .. . .",
". .   . ..   .   .   ..   .. . .   . . ..   . . .   . . . ",
" ..   ....   .   .   ..   . . ..   ......   .. ..   .. . .",
". .          .   .       ... . ..    ..    .. . .   . . . ",
" ..          .   .       .. . . .    ..    . . ..   .. . .",
". .   ....   .   .   ..... . . . ..      .. . . .   . . . ",
" ..   .  .   .   .   ...... . . . .      . . . ..   .. . .",
"...   ....   .   ..      ............  ..........   ......",
"...   ....   .   ..      ............  ..........   ......",
"..........................................................",
".........................................................."
};
