<?xml version="1.0" encoding="UTF-8" standalone="no"?>
<!-- Creator: CorelDRAW -->

<svg
   xmlns:dc="http://purl.org/dc/elements/1.1/"
   xmlns:cc="http://creativecommons.org/ns#"
   xmlns:rdf="http://www.w3.org/1999/02/22-rdf-syntax-ns#"
   xmlns:svg="http://www.w3.org/2000/svg"
   xmlns="http://www.w3.org/2000/svg"
   xmlns:sodipodi="http://sodipodi.sourceforge.net/DTD/sodipodi-0.dtd"
   xmlns:inkscape="http://www.inkscape.org/namespaces/inkscape"
   xml:space="preserve"
   width="210mm"
   height="297mm"
   style="shape-rendering:geometricPrecision; text-rendering:geometricPrecision; image-rendering:optimizeQuality; fill-rule:evenodd; clip-rule:evenodd"
   viewBox="0 0 210 297"
   id="svg3295"
   version="1.1"
   inkscape:version="0.48.2 r9819"
   sodipodi:docname="axemenu.svg"><metadata
   id="metadata3313"><rdf:RDF><cc:Work
       rdf:about=""><dc:format>image/svg+xml</dc:format><dc:type
         rdf:resource="http://purl.org/dc/dcmitype/StillImage" /><dc:title></dc:title></cc:Work></rdf:RDF></metadata><sodipodi:namedview
   pagecolor="#ffffff"
   bordercolor="#666666"
   borderopacity="1"
   objecttolerance="10"
   gridtolerance="10"
   guidetolerance="10"
   inkscape:pageopacity="0"
   inkscape:pageshadow="2"
   inkscape:window-width="1680"
   inkscape:window-height="995"
   id="namedview3311"
   showgrid="false"
   inkscape:zoom="0.31714785"
   inkscape:cx="136.72103"
   inkscape:cy="1155.2424"
   inkscape:window-x="-2"
   inkscape:window-y="-3"
   inkscape:window-maximized="1"
   inkscape:current-layer="svg3295" />
 <defs
   id="defs3297">
  <style
   type="text/css"
   id="style3299">
   
    .fil2 {fill:#6F448A}
    .fil3 {fill:#73A848}
    .fil1 {fill:#6F448A;fill-rule:nonzero}
    .fil0 {fill:#73A848;fill-rule:nonzero}
   
  </style>
 
  
  
  
  
  
 </defs>
 <g
   id="g4539"><rect
     y="99.116241"
     x="63.860416"
     height="90.155602"
     width="90.155602"
     id="rect4099"
     style="fill:none;stroke:none;stroke-opacity:1" /><g
     transform="translate(6.687167,86.897987)"
     id="g3319"><path
       style="fill:#73a848;fill-rule:nonzero"
       inkscape:connector-curvature="0"
       id="path3303"
       d="m 111.23258,65.850675 c 0,4.6608 -3.7443,8.4395 -8.363,8.4395 -4.616004,0 -8.360404,-3.7787 -8.360404,-8.4395 0,-4.6599 3.7444,-8.4351 8.360404,-8.4351 4.6187,0 8.363,3.7752 8.363,8.4351 z"
       class="fil0" /><path
       style="fill:#6f448a;fill-rule:nonzero"
       inkscape:connector-curvature="0"
       id="path3305"
       d="m 142.21658,74.495675 -14.5413,-0.2608 c 0,0 2.4364,-28.2996 -24.9256,-29.0814 -27.359504,-0.7795 -25.575204,29.2122 -25.575204,29.2122 l -14.6675,-0.1308 c 0,0 -2.7218,-39.8405 39.594204,-39.8544 42.3187,-0.0177 40.1154,40.1152 40.1154,40.1152 z"
       class="fil1" /></g></g>
<rect
   style="fill:none;fill-opacity:1;stroke:none"
   id="rect3323"
   width="468.21198"
   height="468.21198"
   x="-71.346588"
   y="-178.36647"
   transform="matrix(0.28222223,0,0,0.28222223,-1.3919578e-6,0)" /><rect
   style="fill:none;stroke:none"
   id="rect4093"
   width="421.39075"
   height="372.34"
   x="147.15234"
   y="15.607066"
   transform="matrix(0.28222223,0,0,0.28222223,-1.3919578e-6,0)" /><rect
   style="fill:none;stroke:none"
   id="rect4095"
   width="200.66228"
   height="269.7793"
   x="138.23401"
   y="-595.2981"
   transform="matrix(0.28222223,0,0,0.28222223,-1.3919578e-6,0)" /></svg>